#!OML:ASF E:\VariousWalksJay\Project 1\Capture day 1\Session 1\Actor2.ASF
:FULLY-SPECIFIED
:DEGREES
1070
root 5.8891 10.3649 38.4375 202.22 26.7313 -183.681
lowerback 46.4927 -4.87659 -1.16125
upperback 15.8795 -1.4707 -6.64242
thorax -3.6392 1.61872 -6.07052
lowerneck -6.35182 2.6261 4.87603
upperneck -26.0673 4.07021 -9.96905
head -6.56008 3.62196 -4.40285
rclavicle 1.47101e-014 7.17613e-014
rhumerus 54.9624 28.1674 -53.4343
rradius 21.9667
rwrist 13.8438
rhand -22.4318 0.557132
rfingers 7.12502
rthumb 3.99178 -29.3852
lclavicle 1.47101e-014 7.17613e-014
lhumerus 54.0493 7.77822 67.4762
lradius 49.3887
lwrist 7.85961
lhand -41.3624 -37.4098
lfingers 7.12502
lthumb -14.2808 -7.9209
rfemur -69.6303 -30.1988 -14.5825
rtibia 93.7259
rfoot -29.4947 -3.23618
rtoes -39.2538
lfemur -89.7961 40.1114 -8.14706
ltibia 68.3249
lfoot 0.540928 5.00881
ltoes -22.3776
1071
root 5.78749 10.3885 38.2339 202.696 27.437 -184.407
lowerback 45.897 -4.74567 -2.44946
upperback 15.7235 -2.00622 -7.65493
thorax -3.70626 1.33923 -6.29355
lowerneck -6.74109 2.76695 5.14727
upperneck -26.3052 4.43968 -9.26039
head -6.57057 3.74822 -4.22693
rclavicle 7.95139e-016 4.12975e-014
rhumerus 52.9585 26.5057 -59.1005
rradius 21.065
rwrist 15.2031
rhand -18.8479 -0.602587
rfingers 7.12502
rthumb 7.45201 -30.4513
lclavicle 7.95139e-016 4.12975e-014
lhumerus 54.2224 6.95634 69.4548
lradius 44.9014
lwrist 4.49441
lhand -40.7631 -35.275
lfingers 7.12502
lthumb -13.7033 -5.74619
rfemur -69.0153 -29.9491 -16.1358
rtibia 92.2683
rfoot -28.9202 -3.77387
rtoes -39.0613
lfemur -90.8726 40.0965 -9.51875
ltibia 69.9991
lfoot 0.895721 4.28918
ltoes -22.3561
1072
root 5.67672 10.4298 38.002 203.108 28.1043 -184.792
lowerback 45.5453 -4.67975 -3.40761
upperback 15.5599 -2.43973 -8.59538
thorax -3.84284 1.13092 -6.65376
lowerneck -6.99375 2.84925 5.43079
upperneck -26.5938 4.70001 -8.71303
head -6.62404 3.83731 -4.11088
rclavicle 4.53229e-014 6.69904e-014
rhumerus 50.4183 24.1681 -65.3262
rradius 20.2309
rwrist 16.3385
rhand -15.1885 -0.971851
rfingers 7.12502
rthumb 10.9829 -30.6646
lclavicle 4.53229e-014 6.69904e-014
lhumerus 54.3487 6.32659 71.9216
lradius 40.1731
lwrist 0.212691
lhand -39.8567 -33.026
lfingers 7.12502
lthumb -12.8297 -3.44025
rfemur -67.8352 -29.2364 -17.6242
rtibia 90.5701
rfoot -28.5144 -4.11436
rtoes -38.4819
lfemur -91.5756 40.0934 -10.5009
ltibia 71.6174
lfoot 0.702731 3.36406
ltoes -21.7812
1073
root 5.56255 10.4782 37.7596 203.707 28.6638 -184.677
lowerback 45.3133 -4.68126 -3.89114
upperback 15.2792 -2.80483 -9.47718
thorax -4.17278 0.956952 -7.22674
lowerneck -6.87974 2.9115 5.64406
upperneck -26.955 4.93373 -8.14591
head -6.76753 3.91285 -3.98973
rclavicle -2.22639e-014 6.33129e-014
rhumerus 47.5254 21.5949 -71.1982
rradius 19.707
rwrist 17.0567
rhand -11.6333 -1.50759
rfingers 7.12502
rthumb 14.4104 -30.9873
lclavicle -2.22639e-014 6.33129e-014
lhumerus 54.2286 5.60667 73.9147
lradius 34.9377
lwrist -4.08541
lhand -38.2916 -29.5586
lfingers 7.12502
lthumb -11.3205 0.115847
rfemur -66.5639 -28.2343 -18.604
rtibia 88.7545
rfoot -28.0592 -5.11788
rtoes -39.2169
lfemur -92.4415 40.2791 -11.3093
ltibia 73.2957
lfoot 0.269559 2.63062
ltoes -21.7608
1074
root 5.44835 10.5315 37.527 204.701 28.739 -183.988
lowerback 44.7387 -4.66287 -4.15706
upperback 15.1973 -2.97009 -9.8391
thorax -4.14474 0.849385 -7.41265
lowerneck -6.95187 3.00576 5.51907
upperneck -27.384 5.20399 -7.71803
head -6.90505 4.06258 -3.85686
rclavicle -1.43125e-014 -4.90998e-014
rhumerus 46.3042 20.6103 -72.9656
rradius 19.5867
rwrist 14.2348
rhand -8.67294 -1.67993
rfingers 7.12502
rthumb 17.2612 -30.9333
lclavicle -1.43125e-014 -4.90998e-014
lhumerus 54.2207 5.00058 75.7221
lradius 29.7502
lwrist -6.52774
lhand -36.4804 -25.5514
lfingers 7.12502
lthumb -9.57338 4.2111
rfemur -65.2659 -27.0707 -18.913
rtibia 86.8701
rfoot -27.5115 -6.40924
rtoes -39.1876
lfemur -93.7235 40.4324 -11.8148
ltibia 74.9731
lfoot -0.263346 2.6147
ltoes -21.201
